<?xml version="1.0" encoding="UTF-8" standalone="no"?><!DOCTYPE svg PUBLIC "-//W3C//DTD SVG 1.1//EN" "http://www.w3.org/Graphics/SVG/1.1/DTD/svg11.dtd"><svg width="100%" height="100%" viewBox="0 0 434 177" version="1.1" xmlns="http://www.w3.org/2000/svg" xmlns:xlink="http://www.w3.org/1999/xlink" xml:space="preserve" xmlns:serif="http://www.serif.com/" style="fill-rule:evenodd;clip-rule:evenodd;stroke-linejoin:round;stroke-miterlimit:2;"><g id="Режим-изоляции" serif:id="Режим изоляции"><path d="M189.949,58.279l0,12.427l-31.036,0l0,37.194l37.293,0l0,-74.492l12.438,0l0,74.492l-12.438,12.433l-37.293,0l-12.435,-12.433l0,-37.194l12.435,-12.427l31.036,0Z" style="fill:#2b2321;fill-rule:nonzero;"/><path d="M269.188,58.279l12.441,12.427l0,12.422l-12.441,12.433l-31.388,0l0,-12.433l31.388,0l0,-12.422l-37.28,0l0,37.194l43.459,0l0,12.433l-43.459,0l-12.434,-12.433l0,-37.194l12.434,-12.427l37.28,0Z" style="fill:#2b2321;fill-rule:nonzero;"/><path d="M342.179,58.279l12.436,12.427l0,37.194l-12.436,12.433l-31.03,0l0,-12.433l31.03,0l0,-37.194l-37.288,0l0,74.393l-12.437,0l0,-74.393l12.437,-12.427l37.288,0Z" style="fill:#2b2321;fill-rule:nonzero;"/><path d="M377.876,58.279l-12.434,12.427l0,12.422l12.434,12.433l37.289,0l0,12.34l-49.723,0l0,12.432l49.723,0l12.43,-12.432l0,-12.34l-12.43,-12.433l-37.289,0l0,-12.422l49.719,0l0,-12.427l-49.719,0Z" style="fill:#2b2321;fill-rule:nonzero;"/><path d="M130.592,85.637c0.137,-10.27 -5.476,-22.764 -5.476,-22.764c0,0 -1.438,-3.629 -3.253,-5.546c-1.815,-1.917 -5.685,-4.044 -5.685,-4.044c0,0 0.439,-0.83 0.439,-2.61c0,-1.779 -1.932,-3.779 -2.423,-4.288c-0.49,-0.508 -7.633,-8.399 -16.431,-12.953c-8.797,-4.553 -17.698,-7.736 -30.535,-7.736l-0.056,0c-12.837,0 -21.738,3.183 -30.536,7.736c-8.798,4.554 -15.938,12.445 -16.43,12.953c-0.491,0.509 -2.423,2.509 -2.423,4.288c0,1.78 0.441,2.61 0.441,2.61c0,0 -3.871,2.127 -5.685,4.044c-1.815,1.917 -3.252,5.546 -3.252,5.546c0,0 -5.616,12.494 -5.479,22.764c0,0 -0.148,1.929 3.106,5.242c0,0 -3.076,3.017 -2.721,6.923c0,0 0.591,6.152 3.077,12.78c2.484,6.625 4.792,10.59 6.153,12.543c1.36,1.953 6.093,5.088 8.519,5.917c0,-0.058 -1.715,3.61 0.593,6.567c0,0 16.092,17.691 44.61,18.164l0.111,0c28.517,-0.473 44.61,-18.164 44.61,-18.164c2.308,-2.957 0.592,-6.625 0.592,-6.567c2.427,-0.829 7.159,-3.964 8.519,-5.917c1.363,-1.953 3.669,-5.917 6.154,-12.543c2.484,-6.627 3.076,-12.78 3.076,-12.78c0.355,-3.906 -2.721,-6.923 -2.721,-6.923c3.254,-3.313 3.106,-5.242 3.106,-5.242Zm-117.106,-26.731c1.873,-2.223 5.619,-4.035 5.619,-4.035c0,0 4.379,6.359 23.674,9.61c14.917,2.329 24.359,2.021 24.359,2.021l0.05,0c0,0 9.442,0.308 24.359,-2.021c19.295,-3.251 23.674,-9.61 23.674,-9.61c0,0 3.748,1.812 5.62,4.035c1.872,2.223 2.793,5.432 2.793,5.432c0,0 -2.562,8.017 -21.721,11.92c-19.159,3.902 -34.69,3.628 -34.69,3.628l-0.12,0c0,0 -15.531,0.274 -34.691,-3.628c-19.159,-3.903 -21.72,-11.92 -21.72,-11.92c0,0 0.921,-3.209 2.794,-5.432Zm97.05,75.343c-1.757,2.197 -5.199,4.905 -6.334,5.491c-1.134,0.586 -7.43,3.514 -20.171,5.016c-9.702,1.318 -16.863,0.951 -16.863,0.951c0,0 -7.175,0.366 -16.877,-0.951c-12.74,-1.502 -19.037,-4.431 -20.172,-5.016c-1.136,-0.585 -4.577,-3.294 -6.334,-5.491c-1.757,-2.197 -0.036,-4.466 -0.036,-4.466c0,0 8.127,3.513 21.417,5.197c13.29,1.685 21.966,1.355 21.966,1.355l0.059,0c0,0 8.677,0.329 21.966,-1.355c13.289,-1.684 21.417,-5.197 21.417,-5.197c0,0 1.72,2.269 -0.038,4.466Zm17.807,-38.215c0.236,2.083 -0.695,5.463 -0.695,5.463c0,0 -0.162,0.975 -1.017,1.684c-0.856,0.709 -9.802,8.559 -33.959,11.383c0,0 -12,1.746 -25.489,1.643l-0.103,0c-13.487,0.103 -25.489,-1.643 -25.489,-1.643c-24.156,-2.825 -33.102,-10.674 -33.958,-11.383c-0.856,-0.709 -1.018,-1.684 -1.018,-1.684c0,0 -0.929,-3.38 -0.693,-5.463c0.236,-2.081 2.404,-3.986 2.404,-3.986c0,0 4.032,3.363 14.545,6.649c10.514,3.287 30.106,5.906 44.209,5.597l0.103,0c14.104,0.308 33.695,-2.31 44.21,-5.597c10.514,-3.286 14.544,-6.649 14.544,-6.649c0,0 2.17,1.905 2.406,3.986Z" style="fill:#02aa4e;fill-rule:nonzero;"/></g></svg>